<?xml version="1.0" standalone="no"?>
<!DOCTYPE svg PUBLIC "-//W3C//DTD SVG 20010904//EN"
 "http://www.w3.org/TR/2001/REC-SVG-20010904/DTD/svg10.dtd">
<svg version="1.0" xmlns="http://www.w3.org/2000/svg"
 width="800.000000pt" height="800.000000pt" viewBox="0 0 800.000000 800.000000"
 preserveAspectRatio="xMidYMid meet">
<metadata>
Created by potrace 1.14, written by Peter Selinger 2001-2017
</metadata>
<g transform="translate(0.000000,800.000000) scale(0.100000,-0.100000)"
fill="#000000" stroke="none">
<path d="M3250 7619 c-84 -9 -191 -41 -425 -124 -27 -10 -66 -26 -85 -35 -19
-9 -55 -22 -80 -29 -25 -7 -65 -21 -90 -31 -25 -11 -63 -24 -85 -31 -21 -7
-84 -32 -139 -55 -56 -24 -108 -44 -116 -44 -15 0 -120 -67 -132 -85 -4 -5
-30 -35 -58 -65 -51 -55 -106 -157 -130 -240 -7 -25 -17 -54 -22 -66 -5 -12
-7 -52 -4 -90 4 -38 9 -103 12 -144 4 -51 11 -78 21 -86 13 -9 18 -45 24 -190
4 -98 8 -240 8 -314 1 -126 4 -147 50 -335 81 -330 120 -507 125 -570 3 -34
13 -79 22 -100 12 -26 20 -84 25 -170 20 -338 47 -544 108 -815 66 -289 190
-585 340 -808 l60 -89 -123 -119 c-67 -65 -157 -162 -199 -216 -42 -53 -90
-106 -107 -118 -73 -52 -355 -173 -690 -295 -154 -57 -361 -147 -425 -186 -31
-19 -91 -60 -132 -91 -42 -32 -81 -58 -86 -58 -34 0 96 -189 184 -267 147
-131 456 -371 649 -505 394 -271 829 -479 1258 -602 265 -76 483 -116 702
-127 119 -6 459 -4 535 4 180 19 397 58 545 99 41 11 93 24 115 30 60 13 218
71 399 144 513 209 1119 606 1600 1051 110 101 146 140 169 186 31 62 36 64
92 42 20 -8 20 -8 1 13 -11 12 -29 22 -40 22 -12 0 -70 30 -131 66 -258 156
-498 265 -940 426 -104 38 -199 75 -210 82 -11 7 -53 67 -94 132 -85 135 -200
258 -294 313 -32 19 -119 55 -195 81 -131 46 -137 49 -139 76 -2 16 -7 153
-12 304 -10 273 -2 481 20 521 7 14 24 19 72 22 l62 3 -72 2 c-41 1 -75 -2
-78 -8 -23 -37 -30 -194 -22 -525 5 -227 4 -357 -3 -370 -5 -11 -19 -90 -30
-175 -12 -85 -28 -191 -36 -236 -15 -81 -9 -134 16 -134 5 0 17 -12 27 -26 24
-38 38 -506 17 -606 -25 -125 -106 -261 -207 -347 -321 -277 -734 -678 -936
-909 -66 -75 -148 -166 -181 -202 l-60 -65 -28 35 c-15 19 -54 66 -88 105
-101 117 -225 281 -337 448 -115 170 -125 191 -107 212 10 12 9 16 -3 21 -9 3
-20 3 -25 0 -5 -3 -16 2 -25 12 -20 23 -113 210 -121 243 -6 29 -106 240 -123
261 -6 7 -20 39 -32 71 -18 49 -21 80 -21 205 -1 164 15 274 50 341 22 44 22
46 11 235 -6 105 -15 206 -19 223 -9 40 -77 130 -113 148 -77 41 -271 401
-349 648 -11 34 -31 97 -45 141 -14 43 -25 86 -25 96 0 9 -8 53 -19 96 -10 44
-24 113 -30 154 -6 41 -16 100 -21 131 -6 30 -10 75 -10 99 0 24 -5 71 -10
104 -6 34 -10 117 -8 186 l3 125 32 -65 c20 -39 33 -80 33 -103 0 -25 16 -72
45 -133 76 -157 208 -271 354 -306 69 -16 268 -21 331 -8 95 20 163 41 224 72
63 32 145 102 175 152 31 49 90 222 111 325 24 111 48 154 102 182 79 40 164
3 204 -89 55 -126 130 -267 170 -322 95 -129 253 -188 474 -177 308 16 476
122 582 370 27 63 31 86 35 182 4 130 13 149 75 159 86 13 198 58 220 89 24
33 175 107 220 107 39 0 81 -23 104 -57 16 -24 20 -51 22 -174 5 -185 -14
-315 -69 -479 -80 -240 -164 -371 -269 -420 -27 -13 -48 -25 -46 -27 9 -9 109
50 145 86 59 59 120 172 173 321 63 176 74 226 88 402 18 218 -6 321 -85 354
-51 21 -89 17 -163 -15 -37 -16 -79 -32 -93 -36 -25 -6 -27 -4 -39 46 -14 55
-10 229 10 439 28 303 21 410 -47 755 -36 186 -57 221 -219 384 -74 74 -134
136 -134 138 0 2 -46 47 -102 101 -55 53 -116 120 -133 147 -30 46 -61 88
-130 173 -30 36 -80 73 -175 129 l-65 38 -210 2 c-552 7 -855 7 -905 2z m1104
-1100 c39 -11 89 -31 111 -44 51 -30 204 -188 248 -257 79 -123 89 -153 108
-318 15 -134 24 -175 67 -298 32 -93 46 -145 38 -147 -6 -2 -58 -8 -116 -15
-282 -30 -524 -80 -775 -160 -178 -56 -211 -65 -290 -82 -76 -16 -395 -17
-490 -1 -154 26 -279 33 -620 33 -308 0 -356 2 -361 15 -4 8 14 79 39 158 25
78 60 198 77 267 17 69 49 169 70 222 36 90 154 291 204 347 44 49 319 151
466 172 36 6 155 14 265 19 189 9 253 15 420 39 39 5 155 21 259 35 104 14
191 28 194 31 8 7 7 7 86 -16z m497 -1211 c69 -32 99 -77 129 -193 40 -158 19
-285 -72 -421 -84 -126 -191 -181 -401 -205 -170 -20 -311 7 -402 77 -45 34
-139 184 -182 289 -59 146 -53 218 25 298 51 53 205 111 407 153 145 31 173
34 300 31 127 -2 145 -5 196 -29z m-1641 -163 c99 -20 158 -51 195 -104 28
-41 30 -48 30 -139 -1 -87 -5 -110 -43 -224 -27 -80 -55 -144 -75 -170 -65
-85 -176 -140 -337 -165 -107 -17 -247 -12 -322 11 -65 19 -166 93 -216 158
-70 91 -95 157 -100 267 -7 162 20 249 93 299 46 32 167 71 254 81 107 14 430
5 521 -14z"/>
</g>
</svg>
