<svg width="40" height="40" viewBox="0 0 40 40" fill="none" xmlns="http://www.w3.org/2000/svg">

<path d="M34.2757 24.9528C34.1935 24.9528 34.1118 24.9326 34.0397 24.8933L33.288 24.4764C33.1757 24.4176 33.2304 24.3966 33.2676 24.3846C33.4174 24.3357 33.4477 24.3243 33.6074 24.2397C33.6242 24.231 33.646 24.2342 33.6633 24.2437L34.2406 24.5652C34.2513 24.5705 34.2633 24.5734 34.2754 24.5734C34.2876 24.5734 34.2996 24.5705 34.3103 24.5652L36.5617 23.3472C36.5723 23.3414 36.5811 23.333 36.5872 23.323C36.5933 23.3129 36.5964 23.3016 36.5964 23.2901V20.8547C36.5964 20.843 36.5932 20.8315 36.5871 20.8213C36.5809 20.8111 36.5721 20.8025 36.5615 20.7965L34.3109 19.5796C34.3003 19.5741 34.2883 19.5712 34.2762 19.5712C34.264 19.5712 34.2521 19.5741 34.2414 19.5796L31.9911 20.7967C31.9805 20.8028 31.9716 20.8113 31.9654 20.8214C31.9592 20.8315 31.9559 20.843 31.9557 20.8547V23.2901C31.9557 23.3135 31.9696 23.3355 31.9911 23.3464L32.6078 23.6806C32.9425 23.8372 33.1476 23.6527 33.1476 23.4671V21.0623C33.1476 21.0286 33.1768 21.0017 33.2129 21.0017H33.4985C33.534 21.0017 33.5635 21.0286 33.5635 21.0623V23.4671C33.5635 23.8856 33.3204 24.1257 32.8969 24.1257C32.7667 24.1257 32.6643 24.1257 32.3783 23.9938L31.788 23.6753C31.7162 23.6361 31.6566 23.5799 31.6152 23.5123C31.5738 23.4448 31.552 23.3682 31.552 23.2903V20.8549C31.552 20.6968 31.642 20.5492 31.788 20.4705L34.0394 19.251C34.112 19.2139 34.1933 19.1945 34.2759 19.1945C34.3585 19.1945 34.4398 19.2139 34.5123 19.251L36.7637 20.4705C36.9095 20.5495 37 20.697 37 20.8549V23.2903C36.9999 23.3682 36.978 23.4448 36.9365 23.5123C36.8951 23.5798 36.8355 23.636 36.7637 23.6753L34.5123 24.8935C34.4405 24.9326 34.3588 24.9531 34.2757 24.9528ZM34.9715 23.2749C33.9858 23.2749 33.7796 22.8508 33.7796 22.4954C33.7797 22.4792 33.7866 22.4637 33.7988 22.4523C33.811 22.4409 33.8276 22.4345 33.8449 22.4345H34.1359C34.1515 22.4344 34.1665 22.4396 34.1784 22.4491C34.1903 22.4585 34.1981 22.4716 34.2006 22.4861C34.2442 22.7639 34.3756 22.904 34.9715 22.904C35.4455 22.904 35.6475 22.8035 35.6475 22.5674C35.6475 22.4313 35.5902 22.3305 34.8533 22.2627C34.2372 22.2056 33.8562 22.0782 33.8562 21.6159C33.8562 21.1902 34.2391 20.936 34.8808 20.936C35.6021 20.936 35.959 21.1708 36.0041 21.6744C36.0048 21.6828 36.0036 21.6914 36.0007 21.6994C35.9978 21.7074 35.9931 21.7148 35.9871 21.7212C35.9809 21.7272 35.9735 21.732 35.9653 21.7354C35.9571 21.7387 35.9483 21.7405 35.9394 21.7406H35.6469C35.6322 21.7406 35.6179 21.7359 35.6064 21.7272C35.5949 21.7186 35.5869 21.7065 35.5837 21.693C35.5133 21.4005 35.3431 21.3072 34.8805 21.3072C34.3628 21.3072 34.3027 21.4766 34.3027 21.6028C34.3027 21.7562 34.3736 21.8009 35.0728 21.8876C35.7647 21.9735 36.0934 22.0947 36.0934 22.5507C36.0937 23.0114 35.6847 23.2749 34.9715 23.2749ZM29.6399 21.6775C29.7287 21.6289 29.7834 21.5401 29.7834 21.4436V20.8177C29.7834 20.7215 29.729 20.6327 29.6399 20.584L27.2674 19.293C27.2235 19.269 27.1737 19.2564 27.1229 19.2563C27.0722 19.2562 27.0223 19.2687 26.9783 19.2924L24.591 20.5843C24.5473 20.608 24.5109 20.6422 24.4856 20.6832C24.4603 20.7243 24.447 20.7708 24.4469 20.8183V23.4015C24.4469 23.4985 24.5025 23.5884 24.5927 23.6365L26.965 24.9034C27.0523 24.9504 27.1596 24.9507 27.2478 24.905L28.6825 24.1573C28.7049 24.1457 28.7235 24.1287 28.7365 24.1081C28.7496 24.0876 28.7565 24.0641 28.7567 24.0401C28.7569 24.0162 28.7503 23.9926 28.7375 23.9719C28.7248 23.9511 28.7064 23.9339 28.6842 23.922L26.2822 22.6299C26.2602 22.6181 26.2419 22.6011 26.2291 22.5806C26.2163 22.56 26.2096 22.5367 26.2096 22.5129V21.7031C26.2096 21.6547 26.2371 21.6103 26.2816 21.5864L27.0296 21.1822C27.0515 21.1704 27.0763 21.1641 27.1016 21.1641C27.1268 21.1641 27.1516 21.1704 27.1735 21.1822L27.9215 21.5864C27.9434 21.5981 27.9617 21.6151 27.9744 21.6356C27.9871 21.6561 27.9938 21.6794 27.9938 21.7031V22.3401C27.9937 22.3639 28.0002 22.3874 28.0129 22.408C28.0256 22.4287 28.0438 22.4458 28.0658 22.4577C28.0879 22.4696 28.1129 22.4758 28.1383 22.4757C28.1637 22.4756 28.1886 22.4692 28.2105 22.4571L29.6399 21.6775ZM27.0875 21.5563C27.096 21.5519 27.1055 21.5496 27.1152 21.5496C27.1249 21.5496 27.1344 21.5519 27.1428 21.5563L27.6009 21.8044C27.618 21.8137 27.6285 21.831 27.6285 21.8493V22.3452C27.6285 22.3638 27.618 22.3808 27.6009 22.3901L27.1428 22.6379C27.1344 22.6425 27.1249 22.6449 27.1152 22.6449C27.1055 22.6449 27.0959 22.6425 27.0875 22.6379L26.6297 22.3901C26.6212 22.3856 26.6142 22.379 26.6093 22.3711C26.6044 22.3632 26.6019 22.3543 26.6019 22.3452V21.8493C26.6019 21.831 26.6124 21.8137 26.6297 21.8044L27.0875 21.5563ZM20.8751 22.5879C20.8751 22.6118 20.8615 22.6342 20.8391 22.6464L20.0193 23.0893C20.0084 23.0953 19.9959 23.0985 19.9833 23.0985C19.9706 23.0985 19.9582 23.0953 19.9472 23.0893L19.1275 22.6464C19.1165 22.6404 19.1074 22.6319 19.1011 22.6216C19.0948 22.6114 19.0915 22.5997 19.0914 22.5879V21.7004C19.0914 21.6765 19.1053 21.6539 19.1275 21.6417L19.9472 21.1982C19.9582 21.192 19.9707 21.1888 19.9834 21.1888C19.9961 21.1888 20.0086 21.192 20.0196 21.1982L20.8396 21.6417C20.8505 21.6477 20.8595 21.6563 20.8658 21.6666C20.872 21.6769 20.8753 21.6886 20.8754 21.7004V22.5879H20.8751ZM21.0966 16.0166C21.0746 16.0054 21.0499 15.9997 21.0249 16C20.9998 16.0004 20.9753 16.0068 20.9537 16.0187C20.9321 16.0306 20.9142 16.0475 20.9016 16.0679C20.8891 16.0882 20.8824 16.1112 20.8822 16.1347V19.5684C20.8821 19.585 20.8774 19.6012 20.8686 19.6156C20.8598 19.6299 20.8472 19.6419 20.832 19.6503C20.8166 19.6585 20.7992 19.6628 20.7815 19.6628C20.7638 19.6628 20.7464 19.6585 20.731 19.6503L20.133 19.3273C20.0893 19.3036 20.0396 19.2912 19.9891 19.2912C19.9386 19.2912 19.8889 19.3036 19.8451 19.3273L17.4573 20.6189C17.4134 20.6426 17.377 20.6767 17.3516 20.7179C17.3263 20.759 17.3129 20.8056 17.3129 20.8531V23.4371C17.3129 23.5336 17.3679 23.6227 17.457 23.6713L19.8448 24.9637C19.9339 25.0121 20.044 25.0121 20.1333 24.9637L22.5217 23.6713C22.5655 23.6475 22.6019 23.6133 22.6271 23.5722C22.6524 23.5311 22.6658 23.4845 22.6658 23.4371V16.9958C22.6658 16.898 22.6091 16.8076 22.518 16.7597L21.0966 16.0166ZM12.6929 19.2786C12.7367 19.2548 12.7864 19.2423 12.837 19.2423C12.8876 19.2423 12.9373 19.2548 12.9811 19.2786L15.369 20.5699C15.458 20.6183 15.5131 20.7077 15.5131 20.8042V23.389C15.5131 23.4855 15.458 23.5748 15.369 23.6232L12.9814 24.9156C12.9375 24.9392 12.8878 24.9517 12.8372 24.9517C12.7865 24.9517 12.7368 24.9392 12.6929 24.9156L10.3059 23.6232C10.2622 23.5994 10.2258 23.5652 10.2005 23.5241C10.1752 23.483 10.1619 23.4364 10.1618 23.389V20.8039C10.1618 20.7077 10.2169 20.6183 10.3059 20.5699L12.6929 19.2786ZM8.35067 20.7826C8.35067 20.6853 8.29621 20.596 8.20657 20.5479L5.81958 19.2603C5.77949 19.2385 5.73427 19.2263 5.68796 19.2249H5.66328C5.61697 19.2264 5.57176 19.2385 5.53166 19.2603L3.14438 20.5479C3.10047 20.5717 3.06401 20.6059 3.03866 20.6471C3.01332 20.6883 2.99999 20.7351 3 20.7826L3.00511 24.2496C3.00511 24.298 3.03205 24.3429 3.07716 24.3663C3.09875 24.3786 3.12352 24.3851 3.14878 24.3851C3.17404 24.3851 3.19881 24.3786 3.2204 24.3663L4.6387 23.6048C4.72834 23.5549 4.78308 23.4669 4.78308 23.3703V21.7507C4.78308 21.6539 4.83755 21.5648 4.9269 21.5164L5.53109 21.1905C5.57476 21.1664 5.62454 21.1538 5.67519 21.1541C5.72455 21.1541 5.77504 21.1657 5.81901 21.1905L6.42264 21.5164C6.51199 21.5648 6.56702 21.6539 6.56702 21.7507V23.3703C6.56702 23.4669 6.62233 23.5554 6.7114 23.6048L8.1297 24.3663C8.15157 24.378 8.17634 24.3841 8.20152 24.3841C8.22671 24.384 8.25145 24.3778 8.27326 24.366C8.29507 24.3542 8.3132 24.3372 8.32584 24.3168C8.33847 24.2964 8.34518 24.2732 8.34528 24.2496L8.35067 20.7826Z" fill="black"/>
</svg>
