<svg width="70" height="80" viewBox="0 0 70 80" fill="none" xmlns="http://www.w3.org/2000/svg">
<g clip-path="url(#clip0_31_5)">
<path d="M35.0294 12.7096C28.107 12.704 21.3384 14.6717 15.5795 18.3638C9.82054 22.0558 5.32992 27.3065 2.67548 33.4518C0.0210516 39.5971 -0.677971 46.361 0.666812 52.8881C2.01159 59.4153 5.33978 65.4125 10.2305 70.1215C15.1212 74.8305 21.3548 78.0397 28.143 79.3433C34.9312 80.6469 41.9691 79.9863 48.3668 77.4452C54.7644 74.904 60.2344 70.5963 64.0851 65.0669C67.9358 59.5374 69.9942 53.0346 70 46.3807V46.3289C70 37.4133 66.3158 28.8628 59.7576 22.5581C53.1995 16.2534 44.3046 12.7109 35.0294 12.7096Z" fill="#DC2626"/>
<path d="M48.2125 53.5734L43.0509 60.5779C43.0509 60.5779 34.3927 61.7264 32.4535 61.5899C30.5142 61.4534 22.5269 60.8509 21.8952 59.9753C21.2635 59.0998 22.0323 55.8659 22.3115 55.5976C22.6363 55.155 22.9136 54.6818 23.1391 54.1854H21.1802C21.1802 54.1854 19.2214 54.4725 18.8002 54.609C18.5406 54.6938 10.1714 58.0689 3.4574 60.9497C6.38247 66.7876 10.9987 71.6896 16.7517 75.0669C22.5046 78.4443 29.1497 80.1533 35.8885 79.9888C42.6274 79.8243 49.1736 77.7931 54.7408 74.1394C60.3079 70.4857 64.6593 65.3647 67.2723 59.3916C60.0539 56.5673 48.6631 52.1613 48.2125 52.1613C47.5759 52.1613 48.2125 53.5734 48.2125 53.5734Z" fill="#1E1F1C"/>
<path d="M52.7199 27.2501C52.7296 26.7394 52.5568 26.2409 52.2302 25.8379C51.9126 25.5945 51.5145 25.4692 51.1087 25.4849C50.8138 25.5475 50.5355 25.6676 50.2909 25.8379L48.4349 26.5487L48.2145 26.8876C47.6366 11.3913 37.8227 9 30.2223 9C22.3869 9 17 11.542 17 28.3798C17 38.4534 19.5955 45.2319 23.3663 49.0542V50.3863C23.3663 50.3863 22.8374 53.446 22.5387 53.8085C22.24 54.171 20.5259 54.8959 20.5259 54.8959C20.3105 55.0324 18.4789 55.9315 18.0774 57.0895C17.6758 58.2475 19.0568 60.2763 19.0568 60.2763C20.2418 61.7185 21.6744 62.9555 23.2928 63.9338C25.6631 65.2425 30.1489 66.7582 37.9354 65.04C45.0215 63.4678 47.3575 59.2783 48.5083 57.8991C49.6592 56.5199 48.43 53.7897 48.2194 53.1919C48.0258 52.7884 47.7454 52.429 47.3967 52.1374C47.1459 51.914 46.9459 51.643 46.8094 51.3417C46.6729 51.0403 46.6027 50.715 46.6033 50.3863V50.118C46.6033 50.118 46.3095 41.2872 46.2752 40.1763C46.3119 39.2732 46.4002 38.3727 46.5397 37.479C46.5397 37.399 46.5837 37.3237 46.6033 37.2483C50.7757 37.9591 51.5348 33.7038 52.1861 32.0703C52.8374 30.4369 52.7199 27.2501 52.7199 27.2501Z" fill="white"/>
<path d="M30.3256 7.09794C27.9307 7.29383 27.2755 7.45707 23.8281 8.70856C18.6623 10.5912 17.6205 11.0374 17.1372 11.5816C15.8162 13.0398 15.7303 13.1922 15.3544 14.4763L15 15.706L15.2255 17.0881C15.3974 18.1764 15.4511 19.1014 15.494 21.6261L15.537 24.793L16.031 26.5777C16.2888 27.5571 16.611 28.8957 16.7398 29.5595C17.0835 31.2898 17.062 31.2463 17.7279 31.2463C18.1038 31.2463 18.3723 31.181 18.5226 31.0504C18.8019 30.8219 19.5 28.6998 20.0047 26.5451C20.4665 24.6188 20.9498 23.4762 22.0131 21.8873L22.8078 20.7011L23.7744 20.2549C24.3651 19.9829 25.3424 19.6564 26.2767 19.4279C27.6729 19.0905 27.9736 19.0579 29.3805 19.0579C30.6585 19.0579 31.6896 18.9599 35.0189 18.5029L39.1 17.9478L39.8625 18.1764C40.8291 18.4702 41.2479 18.764 42.3112 19.9067C42.9663 20.6141 43.2885 21.0711 43.6859 21.8764C44.1906 22.8885 44.2121 22.9538 44.2765 24.1727C44.341 25.2174 44.4269 25.6527 44.7921 26.7845C45.2431 28.1883 46.4889 31.3334 46.7682 31.7578C46.9722 32.0843 47.4555 32.0843 48.6369 31.736C49.5068 31.4749 49.9257 31.2028 49.9257 30.8763C49.9257 30.811 49.8397 30.5063 49.7431 30.2125C49.539 29.6248 49.5605 28.6998 49.829 25.6418C50.0653 22.9429 50.0653 22.475 49.7753 20.527C49.3135 17.4037 49.1416 16.7181 48.5724 15.8802C48.3039 15.4775 47.8851 14.966 47.6596 14.7375C47.4233 14.509 47.0474 14.1498 46.8326 13.9322C46.6178 13.7145 46.1023 13.3119 45.6835 13.018C44.6954 12.3216 43.6429 11.2442 43.02 10.2865C42.7408 9.86211 42.44 9.44857 42.3541 9.3724C42.2682 9.29622 42.193 9.16563 42.193 9.08945C42.193 8.90445 40.8398 7.92502 40.0129 7.52236C39.4866 7.26118 39.1859 7.19589 37.9186 7.09794C36.254 6.96735 31.9688 6.96735 30.3256 7.09794Z" fill="#1E1F1C"/>
</g>
<defs>
<clipPath id="clip0_31_5">
<rect width="70" height="80" fill="white"/>
</clipPath>
</defs>
</svg>
