<svg width="84" height="80" viewBox="0 0 84 80" fill="none" xmlns="http://www.w3.org/2000/svg">
<path d="M42.5315 5.00001C35.1146 4.99377 27.8626 7.18707 21.6923 11.3025C15.522 15.4178 10.7106 21.2705 7.86659 28.1203C5.02256 34.9702 4.2736 42.5096 5.71444 49.785C7.15528 57.0605 10.7212 63.7453 15.9613 68.9942C21.2013 74.2431 27.8801 77.8202 35.1532 79.2733C42.4263 80.7263 49.9669 79.99 56.8216 77.1576C63.6761 74.325 69.5369 69.5234 73.6626 63.3601C77.7884 57.1966 79.9938 49.9483 80 42.5315V42.4738C80 32.536 76.0526 23.0052 69.026 15.9776C61.9995 8.95011 52.4692 5.00146 42.5315 5.00001Z" fill="#DC2626"/>
<path d="M61.2713 26.6188C61.2817 26.0698 61.0966 25.5339 60.7466 25.1007C60.4064 24.8391 59.9798 24.7044 59.545 24.7212C59.2291 24.7885 58.9309 24.9176 58.6688 25.1007L56.6803 25.8648L56.4441 26.2291C55.8249 9.57061 45.31 7 37.1668 7C28.7717 7 23 9.73262 23 27.8333C23 38.6624 25.7809 45.9493 29.821 50.0582V51.4902C29.821 51.4902 29.2544 54.7794 28.9343 55.1691C28.6143 55.5588 26.7778 56.3381 26.7778 56.3381C26.547 56.4848 24.5845 57.4513 24.1544 58.6962C23.7241 59.941 25.2037 62.122 25.2037 62.122C26.4734 63.6723 28.0083 65.0021 29.7423 66.0538C32.2819 67.4607 37.0881 69.09 45.4308 67.243C53.023 65.5528 55.5259 61.0491 56.7589 59.5665C57.992 58.0839 56.675 55.1489 56.4494 54.5063C56.2419 54.0725 55.9415 53.6861 55.5679 53.3727C55.2992 53.1325 55.0849 52.8412 54.9386 52.5173C54.7924 52.1933 54.7172 51.8436 54.7178 51.4902V51.2018C54.7178 51.2018 54.403 41.7087 54.3663 40.5145C54.4056 39.5437 54.5002 38.5756 54.6497 37.6149C54.6497 37.5289 54.6968 37.4479 54.7178 37.3669C59.1883 38.131 60.0016 33.5565 60.6994 31.8005C61.3972 30.0446 61.2713 26.6188 61.2713 26.6188Z" fill="white"/>
<path d="M34.0714 69.8375L33 67.6875H34.0714L51.2143 65L50.1429 66.6125L46.9286 69.8375L39.4286 76.825L36.75 73.6L34.0714 69.8375Z" fill="white" stroke="white"/>
<path d="M54.4425 47.0081C54.411 47.0501 54.243 48.1537 54.075 49.4359C53.907 50.7287 53.697 51.99 53.6025 52.2527C53.5185 52.5155 53.76 52.1476 53.6025 52.7362C54.6575 53.3949 54.017 53.2793 54.5 53.5C54 53.3513 54.6365 53.3033 54.5 55.5C54.3425 58.2747 54.9465 59.158 53.9805 60.9973L53.1405 62.6159L50.904 64.6654C49.6755 65.8005 47.9325 67.3876 47.04 68.1969C46.1475 69.0167 45.171 69.9311 44.877 70.2359C44.2785 70.877 40.7505 74.7974 39.9525 75.7223L39.4275 76.3319L37.5795 74.0932C34.839 70.7719 31.9935 66.4206 31.5105 64.8126C31.3845 64.4027 31.0065 63.5829 30.681 62.9733C29.652 61.0919 29.505 60.661 29.4105 59.1895C29.316 57.592 29.694 55.7316 29.9775 55.2271C30.261 54.7226 30.261 54.7226 30.261 54.7226C30.261 54.7226 29.5 52.5 29.3685 51.99C29.2703 51.6091 28.6542 49.4504 28.3797 48.7528C28.4823 48.5577 28.6442 48.5 28.5 48.5C27.175 49.6952 27.825 49.2047 27.825 49.2047C27.825 49.2047 25.8825 50.9284 25.0215 52.1266C24.6435 52.6731 24.1605 53.2512 23.9505 53.4194C23.4255 53.8608 20.5065 55.1746 18.0075 56.089C13.02 57.9178 12.474 58.1595 10.6575 59.4418C8.715 60.8186 5.922 63.9297 5.0085 65.7585C3.9795 67.829 2.6775 70.7824 2.1 72.3485C1.6065 73.7148 1.386 74.1563 0.8715 74.871C0.525 75.3544 0.189 75.8484 0.1155 75.9745C0.042 76.1217 0 76.8784 0 78.0976V80H42H84V73.3995V66.7885L83.4015 65.9477C82.761 65.0648 81.081 63.5093 78.12 61.0288C76.0935 59.3472 76.0935 59.3472 74.34 58.3172C71.6625 56.7511 70.077 56.0259 66.1185 54.5545L62.3595 53.1671L62.097 52.7362C60.459 50.1191 60.0285 49.5936 58.716 48.6477C57.981 48.1116 57.6345 47.9645 56.175 47.4705C55.251 47.1657 54.4635 46.9555 54.4425 47.0081Z" fill="#121212"/>
<path d="M30.261 54.7226C30.261 54.7226 29.5 52.5 29.3685 51.99C29.2703 51.6091 28.6542 49.4504 28.3797 48.7528L28.5 48.5L29 48.7528L29.9775 50L30.261 54.7226Z" fill="#121212"/>
<path d="M23.7885 25.6656C23.3044 25.7457 22.7759 25.8925 22.4432 25.9576L22.3232 25.9576L22.4432 27.6675L22.9041 28.8758L22.9112 28.9906C23.4407 29.4591 23.4407 29.4591 23.7885 30.1755C23.9852 30.4901 24.0234 30.6133 24.0686 31.0826C24.173 32.1666 24.6581 33.2008 25.477 34.1093C26.4517 35.1897 27.0359 35.5936 28.053 35.8693C30.783 36.6071 34.2193 35.8426 35.6804 34.1676C36.0755 33.7155 36.1304 33.5969 36.5107 32.5729C36.9853 31.2864 37.1998 30.5453 37.3014 29.8081C37.3397 29.5176 37.4142 29.1835 37.4626 29.0655C37.5906 28.7395 38.0643 28.2739 38.4211 28.1127C39.2817 27.7297 40.3842 28.2039 40.731 29.1112C41.096 30.0701 41.2481 30.4092 41.5943 31.036C42.3475 32.4378 42.7697 33.0242 43.308 33.4394C45.0478 34.7996 48.5796 34.8865 51.1063 33.6491C52.052 33.1844 52.548 32.6762 53.2991 31.43C53.9293 30.3819 54.147 29.5339 54.0988 28.3444C54.0726 27.7265 54.0894 27.5579 54.2113 27.2329C54.5207 26.4426 54.9261 25.9567 55.4812 25.7164L55.7166 25.607L55.6008 24.4038L55.4843 23.1941L55.072 23.1937C53.9414 23.1893 51.4836 23.3458 50.3281 23.4971C48.8965 23.6817 46.4857 24.1205 45.3947 24.3859C44.4331 24.6186 43.962 24.764 42.7142 25.1978C39.7418 26.2247 37.6664 26.4175 34.5442 25.9576C32.8245 25.7029 31.9419 25.6478 29.61 25.6656C27.9353 25.6731 25.1508 25.4543 23.7885 25.6656ZM31.1446 26.3449C34.4115 26.4441 35.6837 26.8151 36.329 27.8537C36.5425 28.2068 36.5801 28.323 36.6266 28.8058C36.7113 29.6851 36.5285 30.55 35.8807 32.3132C35.4434 33.5028 35.1379 33.9191 34.3349 34.4167C33.5384 34.9138 32.7331 35.1781 31.538 35.3333C29.3261 35.6264 27.7804 35.3148 26.6975 34.3585C25.6149 33.4021 24.9699 32.3632 24.7767 31.2546C24.6033 30.2839 24.7178 28.7786 25.0095 28.15C25.339 27.4313 26.264 26.8884 27.6776 26.5854C28.3351 26.4419 30.1582 26.3197 31.1446 26.3449ZM50.4598 24.5186C51.5551 24.64 52.2797 24.9839 52.6669 25.5535C53.0942 26.1927 53.4974 27.8952 53.4417 28.8346C53.3838 29.821 52.9403 30.8776 52.1362 31.9156C51.2684 33.0532 49.804 33.6546 47.5833 33.7883C45.3296 33.9251 43.8268 33.3696 42.9975 32.0752C41.9815 30.4986 41.4391 29.2832 41.3466 28.3914C41.2904 27.8765 41.3005 27.7755 41.4539 27.3672C41.8026 26.433 42.6585 25.8637 44.4894 25.3402C45.2659 25.1187 46.6245 24.8011 47.4152 24.6584C48.1407 24.5282 49.8613 24.4493 50.4598 24.5186Z" fill="#1E1F1C"/>
<path d="M36.4203 0.105288C33.8543 0.315865 33.1524 0.491348 29.4586 1.8367C23.9238 3.86058 22.8077 4.34023 22.2899 4.92517C20.8745 6.4928 20.7825 6.65658 20.3797 8.03703L20 9.35899L20.2416 10.8447C20.4258 12.0146 20.4833 13.009 20.5293 15.7231L20.5753 19.1274L21.1047 21.046C21.3808 22.0989 21.726 23.5379 21.8641 24.2515C22.2323 26.1116 22.2093 26.0648 22.9227 26.0648C23.3255 26.0648 23.6132 25.9946 23.7743 25.8542C24.0734 25.6085 24.8214 23.3273 25.3622 21.0109C25.857 18.9403 26.3748 17.7119 27.514 16.0039L28.3655 14.7287L29.4011 14.2491C30.034 13.9566 31.0811 13.6056 32.0822 13.36C33.5781 12.9973 33.9003 12.9622 35.4077 12.9622C36.777 12.9622 37.8817 12.8569 41.4488 12.3656L45.8214 11.7689L46.6384 12.0146C47.674 12.3305 48.1228 12.6463 49.262 13.8747C49.9639 14.6351 50.3091 15.1265 50.7348 15.9922C51.2757 17.0802 51.2987 17.1504 51.3677 18.4606C51.4368 19.5837 51.5288 20.0516 51.9201 21.2683C52.4033 22.7774 53.7381 26.1584 54.0373 26.6146C54.2559 26.9656 54.7738 26.9656 56.0395 26.5912C56.9716 26.3105 57.4203 26.018 57.4203 25.667C57.4203 25.5968 57.3283 25.2693 57.2247 24.9534C57.0061 24.3217 57.0291 23.3273 57.3168 20.0399C57.5699 17.1387 57.5699 16.6356 57.2592 14.5415C56.7644 11.184 56.5803 10.447 55.9705 9.54617C55.6828 9.11332 55.234 8.56348 54.9924 8.3178C54.7392 8.07213 54.3365 7.68607 54.1064 7.4521C53.8762 7.21812 53.3239 6.78527 52.8751 6.4694C51.8165 5.72068 50.6888 4.56251 50.0214 3.53302C49.7222 3.07677 49.4001 2.63222 49.308 2.55032C49.2159 2.46843 49.1354 2.32805 49.1354 2.24616C49.1354 2.04728 47.6855 0.994393 46.7995 0.561539C46.2357 0.280769 45.9135 0.210576 44.5557 0.105288C42.7721 -0.0350971 38.1809 -0.0350971 36.4203 0.105288Z" fill="#1E1F1C"/>
</svg>
