<svg width="70" height="80" viewBox="0 0 70 80" fill="none" xmlns="http://www.w3.org/2000/svg">
<g clip-path="url(#clip0_2_60)">
<path d="M35.0294 12.7096C28.107 12.704 21.3384 14.6717 15.5795 18.3638C9.82054 22.0558 5.32992 27.3065 2.67548 33.4518C0.0210482 39.5971 -0.677975 46.361 0.666808 52.8881C2.01159 59.4153 5.33978 65.4125 10.2305 70.1215C15.1212 74.8305 21.3548 78.0397 28.143 79.3433C34.9312 80.6469 41.9691 79.9863 48.3668 77.4452C54.7644 74.904 60.2344 70.5963 64.0851 65.0669C67.9358 59.5374 69.9942 53.0346 70 46.3807V46.3289C70 37.4133 66.3158 28.8628 59.7576 22.5581C53.1995 16.2534 44.3046 12.7109 35.0294 12.7096Z" fill="#DC2626"/>
<path d="M48.2125 53.5734L43.0509 60.5779C43.0509 60.5779 34.3927 61.7264 32.4535 61.5899C30.5142 61.4534 22.5269 60.8509 21.8952 59.9753C21.2635 59.0998 22.0323 55.8659 22.3115 55.5976C22.6363 55.155 22.9136 54.6818 23.1391 54.1854H21.1802C21.1802 54.1854 19.2214 54.4725 18.8002 54.609C18.5406 54.6938 10.1714 58.0689 3.45739 60.9497C6.38246 66.7876 10.9987 71.6896 16.7517 75.0669C22.5046 78.4443 29.1497 80.1533 35.8885 79.9888C42.6274 79.8243 49.1736 77.7931 54.7408 74.1394C60.3079 70.4857 64.6593 65.3647 67.2723 59.3916C60.0539 56.5673 48.6631 52.1613 48.2125 52.1613C47.5759 52.1613 48.2125 53.5734 48.2125 53.5734Z" fill="#1E1F1C"/>
<path d="M53.3154 27.6175C53.3251 27.1068 53.1523 26.6083 52.8257 26.2053C52.5081 25.9619 52.11 25.8366 51.7042 25.8523C51.4093 25.9149 51.131 26.035 50.8864 26.2053L49.0304 26.9161L48.81 27.255C48.2321 11.7587 38.4182 9.36743 30.8178 9.36743C22.9824 9.36743 17.5955 11.9094 17.5955 28.7472C17.5955 38.8208 20.191 45.5993 23.9618 49.4216L23.0803 49.8923C23.0803 49.8923 23.4329 53.8134 23.1342 54.1759C22.8355 54.5384 21.1214 55.2633 21.1214 55.2633C20.906 55.3998 19.0744 56.2989 18.6729 57.4569C18.2713 58.6149 19.6523 60.6437 19.6523 60.6437C20.8373 62.0859 22.2699 63.3229 23.8883 64.3012C26.2586 65.6099 30.7444 67.1256 38.5309 65.4074C45.617 63.8352 47.953 59.6457 49.1038 58.2665C50.2547 56.8873 49.0255 54.1571 48.8149 53.5593C48.6213 53.1558 48.3409 52.7964 47.9922 52.5048C47.7414 52.2814 47.5414 52.0104 47.4049 51.7091C47.2684 51.4077 47.1982 51.0824 47.1988 50.7537V50.4854C47.1988 50.4854 46.905 41.6546 46.8707 40.5437C46.9074 39.6406 46.9957 38.7401 47.1352 37.8464C47.1352 37.7664 47.1792 37.6911 47.1988 37.6157C51.3712 38.3265 52.1303 34.0712 52.7816 32.4377C53.4329 30.8043 53.3154 27.6175 53.3154 27.6175Z" fill="white"/>
<path d="M28.6239 43.0291C27.3408 43.1562 26.6944 43.3586 26.6944 44.0459C26.6944 44.7331 29.6327 46.5219 30.8717 45.105C32.1107 43.6881 31.0284 42.7984 28.6239 43.0291Z" fill="#1E1F1C"/>
<path d="M51.665 13.5854C51.5622 12.6439 51.5328 12.4133 51.2782 12.1026C51.0235 11.7919 50.7884 10.2526 49.9314 9.39119C49.0744 8.52976 49.8286 7.72481 48.2125 7.16936C46.5965 6.6139 46.1459 6.43032 45.6954 6.43032C45.5591 6.44629 45.4217 6.40969 45.3134 6.32852C45.2051 6.24735 45.1347 6.12823 45.1175 5.99725C45.1149 5.97693 45.1149 5.95637 45.1175 5.93605C45.0028 5.46618 44.7858 5.025 44.4809 4.64155C44.1381 4.26968 43.6484 3.40825 43.3252 3.29998C42.7401 3.10759 42.1387 2.96427 41.5279 2.87162C41.2733 2.87162 37.9334 2.43855 37.7424 2.62214C37.5514 2.80572 37.4878 3.29998 36.9099 2.87162C36.332 2.44326 37.2772 2.29734 35.808 1.8831C34.5842 1.5642 33.3413 1.3174 32.0862 1.14406C32.0862 1.14406 32.4584 0.710987 31.3761 1.14406C30.6371 1.44137 29.8263 1.5343 29.0353 1.41237C28.6239 1.35117 29.0744 1.22879 27.6641 1.16759C26.2537 1.1064 26.3124 1.28057 25.9549 0.941643C25.5975 0.602719 25.4163 0.381478 25.0343 0.320283C24.6523 0.259089 24.0548 -0.0468834 23.6827 0.0048965C23.3748 0.0331544 23.0649 0.0331544 22.7571 0.0048965C22.3996 0.0048965 21.2439 0.381478 21.0529 0.381478C20.6223 0.515302 20.2123 0.703682 19.8335 0.941643C19.2228 1.22828 18.7123 1.67975 18.3643 2.24085C18.0411 2.9187 17.7669 2.71158 17.6787 3.47415C17.6701 3.80088 17.5886 4.12203 17.44 4.41597C17.2913 4.70991 17.0788 4.96981 16.8168 5.17818C16.4544 5.37578 16.07 5.53368 15.6709 5.64891L14.569 6.82573C14.4584 7.13944 14.2602 7.41789 13.9961 7.63067C13.5455 7.99784 12.904 8.05903 13.3497 8.74158C13.9397 9.42814 14.6083 10.0487 15.3428 10.5915C15.3428 10.5915 14.8531 11.3306 15.0196 11.453C15.3623 11.6663 15.6667 11.9318 15.9207 12.2391C16.1349 12.5413 16.3 12.873 16.4104 13.2229C16.4345 13.4722 16.4787 13.7192 16.5426 13.9619C16.6063 14.3338 16.7336 15.8166 16.7336 15.8166L16.9246 16.9887C16.9246 16.9887 17.4143 17.3559 17.3115 17.789C17.1597 18.3978 17.0517 19.0159 16.9882 19.6389C16.9882 19.8837 17.1205 21.3053 17.1205 21.4889C17.1205 21.6724 17.3115 23.8943 17.3115 23.8943L17.5073 25.1088C17.4008 28.1224 17.4613 31.1393 17.6885 34.1467C17.9236 35.9543 18.7757 39.4188 18.7757 39.4188C19.1724 41.9655 19.3242 43.2176 19.7845 44.418C20.2449 45.6183 22.3506 51.2388 27.8697 53.2253C33.3888 55.2117 39.6229 53.9172 42.4388 50.2785C45.2547 46.6398 48.4525 34.7445 48.1978 29.7266C48.115 29.2355 48.115 28.7348 48.1978 28.2438C48.5408 27.7587 48.997 27.3573 49.5299 27.0717C49.8726 26.9481 50.2009 26.7904 50.5093 26.601V16.4191C50.5093 16.4191 50.9549 16.7298 51.2782 15.8025C51.6014 14.8752 51.7679 14.508 51.665 13.5854ZM36.905 44.4274C36.5818 44.7945 27.6494 52.458 23.1929 43.6224C21.9736 41.217 23.6827 39.1835 24.9265 38.5056C26.1704 37.8278 34.427 36.5286 36.1557 39.8613C37.8844 43.1941 37.2184 44.0555 36.905 44.4274ZM47.1743 30.5974C47.0127 32.2591 44.4466 36.1285 41.2684 38.6892C39.1185 40.4215 38.9569 40.2332 38.9569 40.2332C38.9569 40.2332 37.5465 36.4674 35.5289 35.8507C33.5113 35.2341 31.4006 34.3632 29.525 34.3632C27.6494 34.3632 23.619 35.8413 22.669 37.8796C21.7189 39.9178 21.9589 41.2076 21.9589 41.2076C21.9589 41.2076 18.8688 35.7754 18.6092 34.6786C18.4623 34.0431 18.1734 33.1535 17.9579 32.518L17.855 31.2988L18.0901 25.8902L18.1146 25.5559C18.1146 25.5559 18.1146 25.4477 18.1146 25.25C18.1146 23.9178 18.286 18.6363 19.1381 16.6922C20.1175 14.4609 21.4349 12.7192 23.2272 12.2956C24.0027 12.0785 24.7981 11.9335 25.6023 11.8625C25.6023 11.8625 25.7982 12.7239 25.6023 12.9122C25.4065 13.1005 25.5191 13.5289 25.6905 13.8537C25.8619 14.1785 28.712 14.2256 29.1479 13.9761C29.5837 13.7266 30.5436 13.3594 30.7395 12.9922C30.9354 12.6251 31.763 12.0508 31.9589 12.2485C32.3206 12.7287 32.7416 13.1649 33.2125 13.5477C33.9471 14.1032 36.1508 15.3365 36.1508 15.3365C36.1508 15.3365 38.144 16.5698 38.7218 16.4427C39.2997 16.3156 42.0568 17.6148 42.762 16.5698C43.4672 15.5248 44.0744 15.7601 44.0744 15.5342V16.7675L44.3487 17.8878L45.2449 19.6766C45.4358 20.0531 46.3369 21.969 46.3369 23.0658C46.4833 24.7208 46.7187 26.3674 47.0421 27.999C47.2111 28.8551 47.2556 29.7296 47.1743 30.5974V30.5974Z" fill="#1E1F1C"/>
</g>
<defs>
<clipPath id="clip0_2_60">
<rect width="70" height="80" fill="white"/>
</clipPath>
</defs>
</svg>
