<svg width="40" height="40" viewBox="0 0 40 40" fill="none" xmlns="http://www.w3.org/2000/svg">
<g clip-path="url(#clip0_29_5)">
<path d="M0.625 19.9719V39.5032H39.6875V0.440674H0.625V19.9719ZM32.1031 18.4094C33.0387 18.6265 33.8891 19.1159 34.5469 19.8157C34.909 20.1927 35.2238 20.6125 35.4844 21.0657C35.4844 21.1157 33.7969 22.2563 32.7688 22.8938C32.7313 22.9188 32.5813 22.7563 32.4156 22.5094C32.2279 22.1856 31.9613 21.9145 31.6405 21.7216C31.3197 21.5287 30.9553 21.4203 30.5813 21.4063C29.3969 21.325 28.6344 21.9469 28.6406 22.9688C28.6308 23.2232 28.6891 23.4756 28.8094 23.7C29.0688 24.2407 29.5531 24.5625 31.0719 25.2188C33.8688 26.4219 35.0656 27.2157 35.8094 28.3438C36.6406 29.5938 36.825 31.6125 36.2625 33.1063C35.6375 34.7313 34.1062 35.8344 31.9406 36.2C30.9515 36.3133 29.9521 36.3028 28.9656 36.1688C27.4601 35.9246 26.0712 35.2077 25 34.1219C24.6406 33.725 23.9406 32.6907 23.9844 32.6157C24.0985 32.531 24.2186 32.4547 24.3438 32.3875L25.7812 31.5625L26.9031 30.9125L27.1375 31.2594C27.533 31.8252 28.0364 32.3074 28.6188 32.6782C29.8688 33.3344 31.575 33.2438 32.4187 32.4844C32.702 32.2062 32.8788 31.8374 32.9182 31.4422C32.9576 31.0471 32.8571 30.6506 32.6344 30.3219C32.3219 29.8875 31.6969 29.5219 29.95 28.7594C27.9344 27.8907 27.0656 27.3532 26.2719 26.4969C25.7764 25.9319 25.4105 25.2652 25.2 24.5438C25.043 23.7196 25.0198 22.8754 25.1312 22.0438C25.5469 20.0969 27.0062 18.7375 29.1375 18.3344C30.1245 18.2123 31.1243 18.2397 32.1031 18.4157V18.4094ZM22.9344 20.0469V21.6469H17.8625V36.0938H14.2656V21.6438H9.18125V20.0813C9.1676 19.5434 9.18221 19.0052 9.225 18.4688C9.24375 18.4438 12.35 18.4313 16.1 18.4375H22.9156L22.9344 20.0469Z" fill="white"/>
</g>
<defs>
<clipPath id="clip0_29_5">
<rect width="40" height="40" rx="8" fill="white"/>
</clipPath>
</defs>
</svg>
